<mxfile host="app.diagrams.net" modified="2022-04-23T10:17:08.390Z" agent="5.0 (Windows NT 10.0; Win64; x64) AppleWebKit/537.36 (KHTML, like Gecko) Chrome/100.0.4896.127 Safari/537.36" etag="ObFiSjq-k340Nm_r3YDy" version="17.4.6" type="github">
  <diagram id="oGC73x8_xf8aisnfsJaX" name="Page-1">
    <mxGraphModel dx="593" dy="313" grid="1" gridSize="10" guides="1" tooltips="1" connect="1" arrows="1" fold="1" page="1" pageScale="1" pageWidth="827" pageHeight="1169" math="0" shadow="0">
      <root>
        <mxCell id="0" />
        <mxCell id="1" parent="0" />
        <mxCell id="rLOpum6A_BosYX7l_oW6-1" value="" style="endArrow=none;html=1;rounded=0;" edge="1" parent="1">
          <mxGeometry width="50" height="50" relative="1" as="geometry">
            <mxPoint x="170" y="230" as="sourcePoint" />
            <mxPoint x="220" y="230" as="targetPoint" />
          </mxGeometry>
        </mxCell>
        <mxCell id="rLOpum6A_BosYX7l_oW6-2" value="" style="endArrow=none;html=1;rounded=0;" edge="1" parent="1">
          <mxGeometry width="50" height="50" relative="1" as="geometry">
            <mxPoint x="220" y="230" as="sourcePoint" />
            <mxPoint x="220" y="210" as="targetPoint" />
          </mxGeometry>
        </mxCell>
        <mxCell id="rLOpum6A_BosYX7l_oW6-3" value="" style="triangle;whiteSpace=wrap;html=1;direction=south;" vertex="1" parent="1">
          <mxGeometry x="210" y="190" width="20" height="20" as="geometry" />
        </mxCell>
        <mxCell id="rLOpum6A_BosYX7l_oW6-4" value="" style="endArrow=none;html=1;rounded=0;" edge="1" parent="1">
          <mxGeometry width="50" height="50" relative="1" as="geometry">
            <mxPoint x="170" y="360" as="sourcePoint" />
            <mxPoint x="220" y="360" as="targetPoint" />
          </mxGeometry>
        </mxCell>
        <mxCell id="rLOpum6A_BosYX7l_oW6-5" value="" style="endArrow=none;html=1;rounded=0;" edge="1" parent="1">
          <mxGeometry width="50" height="50" relative="1" as="geometry">
            <mxPoint x="220" y="360" as="sourcePoint" />
            <mxPoint x="220" y="340" as="targetPoint" />
          </mxGeometry>
        </mxCell>
        <mxCell id="rLOpum6A_BosYX7l_oW6-6" value="" style="triangle;whiteSpace=wrap;html=1;direction=south;" vertex="1" parent="1">
          <mxGeometry x="210" y="320" width="20" height="20" as="geometry" />
        </mxCell>
        <mxCell id="rLOpum6A_BosYX7l_oW6-7" value="" style="endArrow=none;html=1;rounded=0;" edge="1" parent="1">
          <mxGeometry width="50" height="50" relative="1" as="geometry">
            <mxPoint x="170" y="290" as="sourcePoint" />
            <mxPoint x="220" y="290" as="targetPoint" />
          </mxGeometry>
        </mxCell>
        <mxCell id="rLOpum6A_BosYX7l_oW6-8" value="" style="endArrow=none;html=1;rounded=0;" edge="1" parent="1">
          <mxGeometry width="50" height="50" relative="1" as="geometry">
            <mxPoint x="220" y="290" as="sourcePoint" />
            <mxPoint x="220" y="270" as="targetPoint" />
          </mxGeometry>
        </mxCell>
        <mxCell id="rLOpum6A_BosYX7l_oW6-9" value="" style="triangle;whiteSpace=wrap;html=1;direction=south;" vertex="1" parent="1">
          <mxGeometry x="210" y="250" width="20" height="20" as="geometry" />
        </mxCell>
        <mxCell id="rLOpum6A_BosYX7l_oW6-10" value="&lt;h4&gt;&lt;font face=&quot;Times New Roman&quot;&gt;X&lt;sub&gt;1&lt;/sub&gt;&lt;/font&gt;&lt;/h4&gt;" style="text;html=1;strokeColor=none;fillColor=none;align=center;verticalAlign=middle;whiteSpace=wrap;rounded=0;" vertex="1" parent="1">
          <mxGeometry x="150" y="200" width="60" height="30" as="geometry" />
        </mxCell>
        <mxCell id="rLOpum6A_BosYX7l_oW6-11" value="&lt;h4&gt;&lt;font face=&quot;Times New Roman&quot;&gt;X&lt;span style=&quot;font-size: 10px&quot;&gt;&lt;sub&gt;2&lt;/sub&gt;&lt;/span&gt;&lt;/font&gt;&lt;/h4&gt;" style="text;html=1;strokeColor=none;fillColor=none;align=center;verticalAlign=middle;whiteSpace=wrap;rounded=0;" vertex="1" parent="1">
          <mxGeometry x="150" y="260" width="60" height="30" as="geometry" />
        </mxCell>
        <mxCell id="rLOpum6A_BosYX7l_oW6-13" value="" style="endArrow=none;dashed=1;html=1;dashPattern=1 3;strokeWidth=2;rounded=0;fontFamily=Times New Roman;" edge="1" parent="1">
          <mxGeometry width="50" height="50" relative="1" as="geometry">
            <mxPoint x="179.82999999999998" y="325" as="sourcePoint" />
            <mxPoint x="179.82999999999998" y="300" as="targetPoint" />
          </mxGeometry>
        </mxCell>
        <mxCell id="rLOpum6A_BosYX7l_oW6-15" value="&lt;h4&gt;&lt;font face=&quot;Times New Roman&quot;&gt;X&lt;span style=&quot;font-size: 10px&quot;&gt;&lt;sub&gt;RH&lt;/sub&gt;&lt;/span&gt;&lt;/font&gt;&lt;/h4&gt;" style="text;html=1;strokeColor=none;fillColor=none;align=center;verticalAlign=middle;whiteSpace=wrap;rounded=0;" vertex="1" parent="1">
          <mxGeometry x="150" y="330" width="60" height="30" as="geometry" />
        </mxCell>
        <mxCell id="rLOpum6A_BosYX7l_oW6-16" value="" style="endArrow=classic;html=1;rounded=0;fontFamily=Times New Roman;" edge="1" parent="1">
          <mxGeometry width="50" height="50" relative="1" as="geometry">
            <mxPoint x="240" y="190" as="sourcePoint" />
            <mxPoint x="310" y="190" as="targetPoint" />
          </mxGeometry>
        </mxCell>
        <mxCell id="rLOpum6A_BosYX7l_oW6-17" value="" style="endArrow=classic;html=1;rounded=0;fontFamily=Times New Roman;" edge="1" parent="1">
          <mxGeometry width="50" height="50" relative="1" as="geometry">
            <mxPoint x="240" y="250" as="sourcePoint" />
            <mxPoint x="310" y="250" as="targetPoint" />
          </mxGeometry>
        </mxCell>
        <mxCell id="rLOpum6A_BosYX7l_oW6-18" value="" style="endArrow=classic;html=1;rounded=0;fontFamily=Times New Roman;" edge="1" parent="1">
          <mxGeometry width="50" height="50" relative="1" as="geometry">
            <mxPoint x="240" y="320" as="sourcePoint" />
            <mxPoint x="310" y="320" as="targetPoint" />
          </mxGeometry>
        </mxCell>
        <mxCell id="rLOpum6A_BosYX7l_oW6-22" value="" style="endArrow=classic;html=1;rounded=0;fontFamily=Times New Roman;" edge="1" parent="1">
          <mxGeometry width="50" height="50" relative="1" as="geometry">
            <mxPoint x="319.83" y="160" as="sourcePoint" />
            <mxPoint x="319.83" y="180" as="targetPoint" />
          </mxGeometry>
        </mxCell>
        <mxCell id="rLOpum6A_BosYX7l_oW6-23" value="" style="endArrow=classic;html=1;rounded=0;fontFamily=Times New Roman;" edge="1" parent="1">
          <mxGeometry width="50" height="50" relative="1" as="geometry">
            <mxPoint x="319.83" y="220" as="sourcePoint" />
            <mxPoint x="319.83" y="240" as="targetPoint" />
          </mxGeometry>
        </mxCell>
        <mxCell id="rLOpum6A_BosYX7l_oW6-24" value="" style="endArrow=classic;html=1;rounded=0;fontFamily=Times New Roman;" edge="1" parent="1">
          <mxGeometry width="50" height="50" relative="1" as="geometry">
            <mxPoint x="319.83" y="290" as="sourcePoint" />
            <mxPoint x="319.83" y="310" as="targetPoint" />
          </mxGeometry>
        </mxCell>
        <mxCell id="rLOpum6A_BosYX7l_oW6-28" value="" style="shape=sumEllipse;perimeter=ellipsePerimeter;whiteSpace=wrap;html=1;backgroundOutline=1;fontFamily=Times New Roman;" vertex="1" parent="1">
          <mxGeometry x="310" y="180" width="20" height="20" as="geometry" />
        </mxCell>
        <mxCell id="rLOpum6A_BosYX7l_oW6-30" value="" style="shape=sumEllipse;perimeter=ellipsePerimeter;whiteSpace=wrap;html=1;backgroundOutline=1;fontFamily=Times New Roman;" vertex="1" parent="1">
          <mxGeometry x="310" y="240" width="20" height="20" as="geometry" />
        </mxCell>
        <mxCell id="rLOpum6A_BosYX7l_oW6-31" value="" style="shape=sumEllipse;perimeter=ellipsePerimeter;whiteSpace=wrap;html=1;backgroundOutline=1;fontFamily=Times New Roman;" vertex="1" parent="1">
          <mxGeometry x="310" y="310" width="20" height="20" as="geometry" />
        </mxCell>
        <mxCell id="rLOpum6A_BosYX7l_oW6-32" value="&lt;span style=&quot;font-size: 12pt&quot;&gt;σ&lt;sub&gt;1&lt;/sub&gt;&lt;/span&gt;" style="text;html=1;strokeColor=none;fillColor=none;align=center;verticalAlign=middle;whiteSpace=wrap;rounded=0;fontFamily=Times New Roman;" vertex="1" parent="1">
          <mxGeometry x="295" y="140" width="50" height="20" as="geometry" />
        </mxCell>
        <mxCell id="rLOpum6A_BosYX7l_oW6-33" value="&lt;span style=&quot;font-size: 12pt&quot;&gt;σ&lt;/span&gt;&lt;span style=&quot;font-size: 13.3333px&quot;&gt;&lt;sub&gt;2&lt;/sub&gt;&lt;/span&gt;" style="text;html=1;strokeColor=none;fillColor=none;align=center;verticalAlign=middle;whiteSpace=wrap;rounded=0;fontFamily=Times New Roman;" vertex="1" parent="1">
          <mxGeometry x="295" y="200" width="50" height="20" as="geometry" />
        </mxCell>
        <mxCell id="rLOpum6A_BosYX7l_oW6-34" value="&lt;span style=&quot;font-size: 12pt&quot;&gt;σ&lt;/span&gt;&lt;span style=&quot;font-size: 11.1111px&quot;&gt;&lt;sub&gt;RH&lt;/sub&gt;&lt;/span&gt;" style="text;html=1;strokeColor=none;fillColor=none;align=center;verticalAlign=middle;whiteSpace=wrap;rounded=0;fontFamily=Times New Roman;" vertex="1" parent="1">
          <mxGeometry x="295" y="270" width="50" height="20" as="geometry" />
        </mxCell>
        <mxCell id="rLOpum6A_BosYX7l_oW6-35" value="" style="endArrow=classic;html=1;rounded=0;fontFamily=Times New Roman;entryX=0;entryY=0.5;entryDx=0;entryDy=0;" edge="1" parent="1" target="rLOpum6A_BosYX7l_oW6-38">
          <mxGeometry width="50" height="50" relative="1" as="geometry">
            <mxPoint x="330" y="190" as="sourcePoint" />
            <mxPoint x="400" y="190" as="targetPoint" />
          </mxGeometry>
        </mxCell>
        <mxCell id="rLOpum6A_BosYX7l_oW6-38" value="" style="shape=sumEllipse;perimeter=ellipsePerimeter;whiteSpace=wrap;html=1;backgroundOutline=1;fontFamily=Times New Roman;" vertex="1" parent="1">
          <mxGeometry x="404" y="180" width="20" height="20" as="geometry" />
        </mxCell>
        <mxCell id="rLOpum6A_BosYX7l_oW6-40" value="" style="endArrow=classic;html=1;rounded=0;fontFamily=Times New Roman;entryX=0;entryY=0.5;entryDx=0;entryDy=0;" edge="1" parent="1">
          <mxGeometry width="50" height="50" relative="1" as="geometry">
            <mxPoint x="330" y="249.76" as="sourcePoint" />
            <mxPoint x="404" y="249.76" as="targetPoint" />
          </mxGeometry>
        </mxCell>
        <mxCell id="rLOpum6A_BosYX7l_oW6-41" value="" style="endArrow=classic;html=1;rounded=0;fontFamily=Times New Roman;entryX=0;entryY=0.5;entryDx=0;entryDy=0;" edge="1" parent="1">
          <mxGeometry width="50" height="50" relative="1" as="geometry">
            <mxPoint x="330" y="319.76" as="sourcePoint" />
            <mxPoint x="404" y="319.76" as="targetPoint" />
          </mxGeometry>
        </mxCell>
        <mxCell id="rLOpum6A_BosYX7l_oW6-42" value="" style="shape=sumEllipse;perimeter=ellipsePerimeter;whiteSpace=wrap;html=1;backgroundOutline=1;fontFamily=Times New Roman;" vertex="1" parent="1">
          <mxGeometry x="404" y="240" width="20" height="20" as="geometry" />
        </mxCell>
        <mxCell id="rLOpum6A_BosYX7l_oW6-43" value="" style="shape=sumEllipse;perimeter=ellipsePerimeter;whiteSpace=wrap;html=1;backgroundOutline=1;fontFamily=Times New Roman;" vertex="1" parent="1">
          <mxGeometry x="404" y="310" width="20" height="20" as="geometry" />
        </mxCell>
        <mxCell id="rLOpum6A_BosYX7l_oW6-44" value="" style="endArrow=classic;html=1;rounded=0;fontFamily=Times New Roman;" edge="1" parent="1">
          <mxGeometry width="50" height="50" relative="1" as="geometry">
            <mxPoint x="413.83" y="160" as="sourcePoint" />
            <mxPoint x="413.83" y="180" as="targetPoint" />
          </mxGeometry>
        </mxCell>
        <mxCell id="rLOpum6A_BosYX7l_oW6-45" value="" style="endArrow=classic;html=1;rounded=0;fontFamily=Times New Roman;" edge="1" parent="1">
          <mxGeometry width="50" height="50" relative="1" as="geometry">
            <mxPoint x="413.83" y="220" as="sourcePoint" />
            <mxPoint x="413.83" y="240" as="targetPoint" />
          </mxGeometry>
        </mxCell>
        <mxCell id="rLOpum6A_BosYX7l_oW6-46" value="" style="endArrow=classic;html=1;rounded=0;fontFamily=Times New Roman;" edge="1" parent="1">
          <mxGeometry width="50" height="50" relative="1" as="geometry">
            <mxPoint x="413.83" y="290" as="sourcePoint" />
            <mxPoint x="413.83" y="310" as="targetPoint" />
          </mxGeometry>
        </mxCell>
        <mxCell id="rLOpum6A_BosYX7l_oW6-47" value="n&lt;sub&gt;1&lt;/sub&gt;" style="text;html=1;strokeColor=none;fillColor=none;align=center;verticalAlign=middle;whiteSpace=wrap;rounded=0;fontFamily=Times New Roman;" vertex="1" parent="1">
          <mxGeometry x="384" y="135" width="60" height="30" as="geometry" />
        </mxCell>
        <mxCell id="rLOpum6A_BosYX7l_oW6-48" value="n&lt;span style=&quot;font-size: 10px&quot;&gt;&lt;sub&gt;2&lt;/sub&gt;&lt;/span&gt;" style="text;html=1;strokeColor=none;fillColor=none;align=center;verticalAlign=middle;whiteSpace=wrap;rounded=0;fontFamily=Times New Roman;" vertex="1" parent="1">
          <mxGeometry x="384" y="195" width="60" height="30" as="geometry" />
        </mxCell>
        <mxCell id="rLOpum6A_BosYX7l_oW6-49" value="n&lt;span style=&quot;font-size: 10px&quot;&gt;&lt;sub&gt;RH&lt;/sub&gt;&lt;/span&gt;" style="text;html=1;strokeColor=none;fillColor=none;align=center;verticalAlign=middle;whiteSpace=wrap;rounded=0;fontFamily=Times New Roman;" vertex="1" parent="1">
          <mxGeometry x="384" y="265" width="60" height="30" as="geometry" />
        </mxCell>
        <mxCell id="rLOpum6A_BosYX7l_oW6-50" value="" style="endArrow=none;html=1;rounded=0;" edge="1" parent="1">
          <mxGeometry width="50" height="50" relative="1" as="geometry">
            <mxPoint x="560" y="229.43" as="sourcePoint" />
            <mxPoint x="510" y="229.43" as="targetPoint" />
          </mxGeometry>
        </mxCell>
        <mxCell id="rLOpum6A_BosYX7l_oW6-51" value="" style="endArrow=none;html=1;rounded=0;" edge="1" parent="1">
          <mxGeometry width="50" height="50" relative="1" as="geometry">
            <mxPoint x="510" y="229.43" as="sourcePoint" />
            <mxPoint x="510" y="209.43" as="targetPoint" />
          </mxGeometry>
        </mxCell>
        <mxCell id="rLOpum6A_BosYX7l_oW6-52" value="" style="triangle;whiteSpace=wrap;html=1;direction=south;" vertex="1" parent="1">
          <mxGeometry x="500" y="189.43" width="20" height="20" as="geometry" />
        </mxCell>
        <mxCell id="rLOpum6A_BosYX7l_oW6-53" value="" style="endArrow=none;html=1;rounded=0;" edge="1" parent="1">
          <mxGeometry width="50" height="50" relative="1" as="geometry">
            <mxPoint x="560" y="359.43" as="sourcePoint" />
            <mxPoint x="510" y="359.43" as="targetPoint" />
          </mxGeometry>
        </mxCell>
        <mxCell id="rLOpum6A_BosYX7l_oW6-54" value="" style="endArrow=none;html=1;rounded=0;" edge="1" parent="1">
          <mxGeometry width="50" height="50" relative="1" as="geometry">
            <mxPoint x="510" y="359.43" as="sourcePoint" />
            <mxPoint x="510" y="339.43" as="targetPoint" />
          </mxGeometry>
        </mxCell>
        <mxCell id="rLOpum6A_BosYX7l_oW6-55" value="" style="triangle;whiteSpace=wrap;html=1;direction=south;" vertex="1" parent="1">
          <mxGeometry x="500" y="319.43" width="20" height="20" as="geometry" />
        </mxCell>
        <mxCell id="rLOpum6A_BosYX7l_oW6-56" value="" style="endArrow=none;html=1;rounded=0;" edge="1" parent="1">
          <mxGeometry width="50" height="50" relative="1" as="geometry">
            <mxPoint x="560" y="289.43" as="sourcePoint" />
            <mxPoint x="510" y="289.43" as="targetPoint" />
          </mxGeometry>
        </mxCell>
        <mxCell id="rLOpum6A_BosYX7l_oW6-57" value="" style="endArrow=none;html=1;rounded=0;" edge="1" parent="1">
          <mxGeometry width="50" height="50" relative="1" as="geometry">
            <mxPoint x="510" y="289.43" as="sourcePoint" />
            <mxPoint x="510" y="269.43" as="targetPoint" />
          </mxGeometry>
        </mxCell>
        <mxCell id="rLOpum6A_BosYX7l_oW6-58" value="" style="triangle;whiteSpace=wrap;html=1;direction=south;" vertex="1" parent="1">
          <mxGeometry x="500" y="249.43" width="20" height="20" as="geometry" />
        </mxCell>
        <mxCell id="rLOpum6A_BosYX7l_oW6-59" value="&lt;h4&gt;&lt;font face=&quot;Times New Roman&quot;&gt;&lt;span style=&quot;font-size: 10px&quot;&gt;Y&lt;sub&gt;1&lt;/sub&gt;&lt;/span&gt;&lt;/font&gt;&lt;/h4&gt;" style="text;html=1;strokeColor=none;fillColor=none;align=center;verticalAlign=middle;whiteSpace=wrap;rounded=0;" vertex="1" parent="1">
          <mxGeometry x="520" y="199.43" width="60" height="30" as="geometry" />
        </mxCell>
        <mxCell id="rLOpum6A_BosYX7l_oW6-60" value="&lt;h4&gt;&lt;font face=&quot;Times New Roman&quot;&gt;Y&lt;sub&gt;2&lt;/sub&gt;&lt;/font&gt;&lt;/h4&gt;" style="text;html=1;strokeColor=none;fillColor=none;align=center;verticalAlign=middle;whiteSpace=wrap;rounded=0;" vertex="1" parent="1">
          <mxGeometry x="520" y="259.43" width="60" height="30" as="geometry" />
        </mxCell>
        <mxCell id="rLOpum6A_BosYX7l_oW6-61" value="" style="endArrow=none;dashed=1;html=1;dashPattern=1 3;strokeWidth=2;rounded=0;fontFamily=Times New Roman;" edge="1" parent="1">
          <mxGeometry width="50" height="50" relative="1" as="geometry">
            <mxPoint x="549.8299999999999" y="324.43" as="sourcePoint" />
            <mxPoint x="549.8299999999999" y="299.43" as="targetPoint" />
          </mxGeometry>
        </mxCell>
        <mxCell id="rLOpum6A_BosYX7l_oW6-62" value="&lt;h4&gt;&lt;font face=&quot;Times New Roman&quot;&gt;&lt;span style=&quot;font-size: 10px&quot;&gt;Y&lt;sub&gt;RH&lt;/sub&gt;&lt;/span&gt;&lt;/font&gt;&lt;/h4&gt;" style="text;html=1;strokeColor=none;fillColor=none;align=center;verticalAlign=middle;whiteSpace=wrap;rounded=0;" vertex="1" parent="1">
          <mxGeometry x="520" y="329.43" width="60" height="30" as="geometry" />
        </mxCell>
        <mxCell id="rLOpum6A_BosYX7l_oW6-63" value="" style="endArrow=classic;html=1;rounded=0;fontFamily=Times New Roman;" edge="1" parent="1">
          <mxGeometry width="50" height="50" relative="1" as="geometry">
            <mxPoint x="424" y="190" as="sourcePoint" />
            <mxPoint x="494" y="190" as="targetPoint" />
          </mxGeometry>
        </mxCell>
        <mxCell id="rLOpum6A_BosYX7l_oW6-64" value="" style="endArrow=classic;html=1;rounded=0;fontFamily=Times New Roman;" edge="1" parent="1">
          <mxGeometry width="50" height="50" relative="1" as="geometry">
            <mxPoint x="424" y="250" as="sourcePoint" />
            <mxPoint x="494" y="250" as="targetPoint" />
          </mxGeometry>
        </mxCell>
        <mxCell id="rLOpum6A_BosYX7l_oW6-65" value="" style="endArrow=classic;html=1;rounded=0;fontFamily=Times New Roman;" edge="1" parent="1">
          <mxGeometry width="50" height="50" relative="1" as="geometry">
            <mxPoint x="424" y="320" as="sourcePoint" />
            <mxPoint x="494" y="320" as="targetPoint" />
          </mxGeometry>
        </mxCell>
      </root>
    </mxGraphModel>
  </diagram>
</mxfile>
